<?xml version="1.0" encoding="UTF-8" standalone="no"?>
<!DOCTYPE svg PUBLIC "-//W3C//DTD SVG 1.1//EN"
 "http://www.w3.org/Graphics/SVG/1.1/DTD/svg11.dtd">
<!-- Generated by graphviz version 2.43.0 (0)
 -->
<!-- Title: Wikipedia History Script Graph Pages: 1 -->
<svg width="1754pt" height="1338pt"
 viewBox="0.00 0.00 1754.00 1338.00" xmlns="http://www.w3.org/2000/svg" xmlns:xlink="http://www.w3.org/1999/xlink">
<g id="graph0" class="graph" transform="scale(1 1) rotate(0) translate(4 1334)">
<title>Wikipedia History Script Graph</title>
<polygon fill="#22262d" stroke="transparent" points="-4,4 -4,-1334 1750,-1334 1750,4 -4,4"/>
<text text-anchor="middle" x="873" y="-37.8" font-family="systemui,lato,Sans-serif" font-size="14.00" fill="white">Wikipedia HistoryHelper Plugin (v2.6.5) © 2022 Alexander A.D.</text>
<text text-anchor="middle" x="873" y="-22.8" font-family="systemui,lato,Sans-serif" font-size="14.00" fill="white">made with graphviz dot language.</text>
<text text-anchor="middle" x="873" y="-7.8" font-family="systemui,lato,Sans-serif" font-size="14.00" fill="white">meta.date, Ryazan, Russia</text>
<g id="clust1" class="cluster">
<title>cluster_Classes</title>
<polygon fill="#22262d" stroke="#91ff00" points="887,-655 887,-1322 1738,-1322 1738,-655 887,-655"/>
<text text-anchor="middle" x="1312.5" y="-1306.8" font-family="systemui,lato,Sans-serif" font-size="14.00" fill="white">Classes hierarchy</text>
</g>
<g id="clust7" class="cluster">
<title>cluster_Mediawiki</title>
<polygon fill="#22262d" stroke="white" points="58,-254 58,-340 629,-340 629,-254 58,-254"/>
<text text-anchor="middle" x="343.5" y="-324.8" font-family="systemui,lato,Sans-serif" font-size="14.00" fill="white">Mediawiki Libraries</text>
</g>
<g id="clust8" class="cluster">
<title>cluster_lifecycle</title>
<polygon fill="#22262d" stroke="#ff5837" points="823,-61 823,-636 1685,-636 1685,-61 823,-61"/>
<text text-anchor="middle" x="1254" y="-620.8" font-family="systemui,lato,Sans-serif" font-size="14.00" fill="white">Script lifecycle</text>
</g>
<g id="clust9" class="cluster">
<title>cluster_cycle_revisions</title>
<polygon fill="#22262d" stroke="yellow" points="1069,-447.5 1069,-605 1677,-605 1677,-447.5 1069,-447.5"/>
</g>
<!-- Object -->
<g id="node1" class="node">
<title>Object</title>
<path fill="none" stroke="white" d="M1108,-1244.5C1108,-1244.5 1224,-1244.5 1224,-1244.5 1230,-1244.5 1236,-1250.5 1236,-1256.5 1236,-1256.5 1236,-1278.5 1236,-1278.5 1236,-1284.5 1230,-1290.5 1224,-1290.5 1224,-1290.5 1108,-1290.5 1108,-1290.5 1102,-1290.5 1096,-1284.5 1096,-1278.5 1096,-1278.5 1096,-1256.5 1096,-1256.5 1096,-1250.5 1102,-1244.5 1108,-1244.5"/>
<text text-anchor="start" x="1104" y="-1276.3" font-family="systemui,lato,Sans-serif" font-weight="bold" font-size="14.00" fill="white">Class: Object</text>
<text text-anchor="start" x="1186" y="-1276.3" font-family="systemui,lato,Sans-serif" font-size="14.00" fill="white"> &#160;&#160;&#160;&#160;&#160;&#160;&#160;&#160;&#160;&#160;</text>
<polyline fill="none" stroke="white" points="1096,-1267.5 1236,-1267.5 "/>
<text text-anchor="start" x="1140.5" y="-1252.3" font-family="systemui,lato,Sans-serif" font-size="14.00" fill="white">... &#160;&#160;&#160;&#160;&#160;&#160;&#160;&#160;&#160;&#160;</text>
</g>
<!-- Map -->
<g id="node2" class="node">
<title>Map</title>
<path fill="none" stroke="white" d="M907.5,-1103C907.5,-1103 1008.5,-1103 1008.5,-1103 1014.5,-1103 1020.5,-1109 1020.5,-1115 1020.5,-1115 1020.5,-1137 1020.5,-1137 1020.5,-1143 1014.5,-1149 1008.5,-1149 1008.5,-1149 907.5,-1149 907.5,-1149 901.5,-1149 895.5,-1143 895.5,-1137 895.5,-1137 895.5,-1115 895.5,-1115 895.5,-1109 901.5,-1103 907.5,-1103"/>
<text text-anchor="start" x="903.5" y="-1134.8" font-family="systemui,lato,Sans-serif" font-weight="bold" font-size="14.00" fill="white">Class: Map</text>
<text text-anchor="start" x="970.5" y="-1134.8" font-family="systemui,lato,Sans-serif" font-size="14.00" fill="white"> &#160;&#160;&#160;&#160;&#160;&#160;&#160;&#160;&#160;&#160;</text>
<polyline fill="none" stroke="white" points="895.5,-1126 1020.5,-1126 "/>
<text text-anchor="start" x="932.5" y="-1110.8" font-family="systemui,lato,Sans-serif" font-size="14.00" fill="white">... &#160;&#160;&#160;&#160;&#160;&#160;&#160;&#160;&#160;&#160;</text>
</g>
<!-- Object&#45;&gt;Map -->
<g id="edge7" class="edge">
<title>Object&#45;&gt;Map</title>
<path fill="none" stroke="white" d="M1089.25,-1239.68C1069.04,-1230.85 1047.9,-1219.92 1030,-1207 1007.58,-1190.81 987.02,-1166.61 973.66,-1149.06"/>
<polygon fill="white" stroke="white" points="1089.31,-1239.7 1096.39,-1238.35 1100.36,-1244.37 1093.28,-1245.72 1089.31,-1239.7"/>
</g>
<!-- Array -->
<g id="node3" class="node">
<title>Array</title>
<path fill="none" stroke="white" d="M1050.5,-1103C1050.5,-1103 1157.5,-1103 1157.5,-1103 1163.5,-1103 1169.5,-1109 1169.5,-1115 1169.5,-1115 1169.5,-1137 1169.5,-1137 1169.5,-1143 1163.5,-1149 1157.5,-1149 1157.5,-1149 1050.5,-1149 1050.5,-1149 1044.5,-1149 1038.5,-1143 1038.5,-1137 1038.5,-1137 1038.5,-1115 1038.5,-1115 1038.5,-1109 1044.5,-1103 1050.5,-1103"/>
<text text-anchor="start" x="1046.5" y="-1134.8" font-family="systemui,lato,Sans-serif" font-weight="bold" font-size="14.00" fill="white">Class: Array</text>
<text text-anchor="start" x="1119.5" y="-1134.8" font-family="systemui,lato,Sans-serif" font-size="14.00" fill="white"> &#160;&#160;&#160;&#160;&#160;&#160;&#160;&#160;&#160;&#160;</text>
<polyline fill="none" stroke="white" points="1038.5,-1126 1169.5,-1126 "/>
<text text-anchor="start" x="1078.5" y="-1110.8" font-family="systemui,lato,Sans-serif" font-size="14.00" fill="white">... &#160;&#160;&#160;&#160;&#160;&#160;&#160;&#160;&#160;&#160;</text>
</g>
<!-- Object&#45;&gt;Array -->
<g id="edge1" class="edge">
<title>Object&#45;&gt;Array</title>
<path fill="none" stroke="white" d="M1151.18,-1233.16C1139.6,-1207.1 1123.83,-1171.61 1113.78,-1149"/>
<polygon fill="white" stroke="white" points="1151.3,-1233.43 1157.39,-1237.29 1156.18,-1244.4 1150.08,-1240.54 1151.3,-1233.43"/>
</g>
<!-- HH -->
<g id="node4" class="node">
<title>HH</title>
<path fill="none" stroke="white" stroke-width="2" d="M1219.5,-1045.5C1219.5,-1045.5 1502.5,-1045.5 1502.5,-1045.5 1508.5,-1045.5 1514.5,-1051.5 1514.5,-1057.5 1514.5,-1057.5 1514.5,-1194.5 1514.5,-1194.5 1514.5,-1200.5 1508.5,-1206.5 1502.5,-1206.5 1502.5,-1206.5 1219.5,-1206.5 1219.5,-1206.5 1213.5,-1206.5 1207.5,-1200.5 1207.5,-1194.5 1207.5,-1194.5 1207.5,-1057.5 1207.5,-1057.5 1207.5,-1051.5 1213.5,-1045.5 1219.5,-1045.5"/>
<text text-anchor="start" x="1309.5" y="-1192.3" font-family="systemui,lato,Sans-serif" font-weight="bold" font-size="14.00" fill="white">Class: HH</text>
<text text-anchor="start" x="1370.5" y="-1192.3" font-family="systemui,lato,Sans-serif" font-size="14.00" fill="white"> &#160;&#160;&#160;&#160;&#160;&#160;&#160;&#160;&#160;&#160;</text>
<polyline fill="none" stroke="white" stroke-width="2" points="1207.5,-1183.5 1514.5,-1183.5 "/>
<text text-anchor="start" x="1228" y="-1168.3" font-family="systemui,lato,Sans-serif" font-size="14.00" fill="white"> </text>
<polyline fill="none" stroke="white" stroke-width="2" points="1252.5,-1160.5 1252.5,-1183.5 "/>
<text text-anchor="start" x="1273" y="-1168.3" font-family="systemui,lato,Sans-serif" font-size="14.00" fill="white">A primary class that handles all logic.</text>
<polyline fill="none" stroke="white" stroke-width="2" points="1207.5,-1160.5 1514.5,-1160.5 "/>
<text text-anchor="start" x="1289" y="-1146.3" font-family="systemui,lato,Sans-serif" font-size="14.00" fill="white">+</text>
<text text-anchor="start" x="1298" y="-1146.3" font-family="systemui,lato,Sans-serif" font-weight="bold" font-size="14.00" fill="white">public</text>
<text text-anchor="start" x="1338" y="-1146.3" font-family="systemui,lato,Sans-serif" font-size="14.00" fill="white"> &#160;options &#160;&#160;&#160;&#160;&#160;&#160;&#160;&#160;&#160;&#160;</text>
<polyline fill="none" stroke="white" stroke-width="2" points="1207.5,-1137.5 1514.5,-1137.5 "/>
<text text-anchor="start" x="1215.5" y="-1123.3" font-family="systemui,lato,Sans-serif" font-size="14.00" fill="white">+</text>
<text text-anchor="start" x="1224.5" y="-1123.3" font-family="systemui,lato,Sans-serif" font-weight="bold" font-size="14.00" fill="white">static</text>
<text text-anchor="start" x="1258.5" y="-1123.3" font-family="systemui,lato,Sans-serif" font-size="14.00" fill="white"> &#160;constructor(toolbar, revisions, ...) &#160;&#160;&#160;&#160;&#160;&#160;&#160;&#160;&#160;&#160;</text>
<polyline fill="none" stroke="white" stroke-width="2" points="1207.5,-1114.5 1514.5,-1114.5 "/>
<text text-anchor="start" x="1264" y="-1100.3" font-family="systemui,lato,Sans-serif" font-size="14.00" fill="white">+</text>
<text text-anchor="start" x="1273" y="-1100.3" font-family="systemui,lato,Sans-serif" font-weight="bold" font-size="14.00" fill="white">static</text>
<text text-anchor="start" x="1307" y="-1100.3" font-family="systemui,lato,Sans-serif" font-size="14.00" fill="white"> &#160;revisionsToDiffs() &#160;&#160;&#160;&#160;&#160;&#160;&#160;&#160;&#160;&#160;</text>
<polyline fill="none" stroke="white" stroke-width="2" points="1207.5,-1091.5 1514.5,-1091.5 "/>
<text text-anchor="start" x="1262.5" y="-1077.3" font-family="systemui,lato,Sans-serif" font-size="14.00" fill="white">+</text>
<text text-anchor="start" x="1271.5" y="-1077.3" font-family="systemui,lato,Sans-serif" font-weight="bold" font-size="14.00" fill="white">static</text>
<text text-anchor="start" x="1305.5" y="-1077.3" font-family="systemui,lato,Sans-serif" font-size="14.00" fill="white"> &#160;revisionsToLinks() &#160;&#160;&#160;&#160;&#160;&#160;&#160;&#160;&#160;&#160;</text>
<polyline fill="none" stroke="white" stroke-width="2" points="1207.5,-1068.5 1514.5,-1068.5 "/>
<text text-anchor="start" x="1263" y="-1054.3" font-family="systemui,lato,Sans-serif" font-size="14.00" fill="white">+</text>
<text text-anchor="start" x="1272" y="-1054.3" font-family="systemui,lato,Sans-serif" font-weight="bold" font-size="14.00" fill="white">static</text>
<text text-anchor="start" x="1306" y="-1054.3" font-family="systemui,lato,Sans-serif" font-size="14.00" fill="white"> &#160;revisionsToTable() &#160;&#160;&#160;&#160;&#160;&#160;&#160;&#160;&#160;&#160;</text>
</g>
<!-- Object&#45;&gt;HH -->
<g id="edge9" class="edge">
<title>Object&#45;&gt;HH</title>
<path fill="none" stroke="white" d="M1206.7,-1237.39C1219.49,-1228.24 1234.28,-1217.65 1249.54,-1206.74"/>
<polygon fill="white" stroke="white" points="1206.66,-1237.41 1204.11,-1244.16 1196.9,-1244.4 1199.45,-1237.65 1206.66,-1237.41"/>
</g>
<!-- Entry -->
<g id="node9" class="node">
<title>Entry</title>
<path fill="none" stroke="white" d="M1412.5,-919.5C1412.5,-919.5 1653.5,-919.5 1653.5,-919.5 1659.5,-919.5 1665.5,-925.5 1665.5,-931.5 1665.5,-931.5 1665.5,-976.5 1665.5,-976.5 1665.5,-982.5 1659.5,-988.5 1653.5,-988.5 1653.5,-988.5 1412.5,-988.5 1412.5,-988.5 1406.5,-988.5 1400.5,-982.5 1400.5,-976.5 1400.5,-976.5 1400.5,-931.5 1400.5,-931.5 1400.5,-925.5 1406.5,-919.5 1412.5,-919.5"/>
<text text-anchor="start" x="1475.5" y="-974.3" font-family="systemui,lato,Sans-serif" font-weight="bold" font-size="14.00" fill="white">Class: Entry</text>
<text text-anchor="start" x="1548.5" y="-974.3" font-family="systemui,lato,Sans-serif" font-size="14.00" fill="white"> &#160;&#160;&#160;&#160;&#160;&#160;&#160;&#160;&#160;&#160;</text>
<polyline fill="none" stroke="white" points="1400.5,-965.5 1665.5,-965.5 "/>
<text text-anchor="start" x="1413" y="-950.3" font-family="systemui,lato,Sans-serif" font-size="14.00" fill="white"> </text>
<polyline fill="none" stroke="white" points="1429.5,-942.5 1429.5,-965.5 "/>
<text text-anchor="start" x="1442" y="-950.3" font-family="systemui,lato,Sans-serif" font-size="14.00" fill="white">Wrapper around &lt;li&gt; history entry.</text>
<polyline fill="none" stroke="white" points="1400.5,-942.5 1665.5,-942.5 "/>
<text text-anchor="start" x="1408.5" y="-928.3" font-family="systemui,lato,Sans-serif" font-size="14.00" fill="white">+</text>
<text text-anchor="start" x="1417.5" y="-928.3" font-family="systemui,lato,Sans-serif" font-weight="bold" font-size="14.00" fill="white">static</text>
<text text-anchor="start" x="1451.5" y="-928.3" font-family="systemui,lato,Sans-serif" font-size="14.00" fill="white"> &#160;constructor(htmlElement) &#160;&#160;&#160;&#160;&#160;&#160;&#160;&#160;&#160;&#160;</text>
</g>
<!-- Object&#45;&gt;Entry -->
<g id="edge5" class="edge">
<title>Object&#45;&gt;Entry</title>
<path fill="none" stroke="white" d="M1174.03,-1232.32C1175.82,-1224.06 1177.59,-1215.24 1179,-1207 1185.1,-1171.24 1174.22,-1071.49 1199,-1045 1258.67,-981.22 1307.93,-1031.67 1392,-1008 1411.26,-1002.58 1431.6,-995.66 1450.65,-988.63"/>
<polygon fill="white" stroke="white" points="1173.98,-1232.56 1176.58,-1239.29 1171.37,-1244.27 1168.77,-1237.55 1173.98,-1232.56"/>
</g>
<!-- Toolbar -->
<g id="node5" class="node">
<title>Toolbar</title>
<path fill="none" stroke="white" d="M907,-770.5C907,-770.5 1133,-770.5 1133,-770.5 1139,-770.5 1145,-776.5 1145,-782.5 1145,-782.5 1145,-850.5 1145,-850.5 1145,-856.5 1139,-862.5 1133,-862.5 1133,-862.5 907,-862.5 907,-862.5 901,-862.5 895,-856.5 895,-850.5 895,-850.5 895,-782.5 895,-782.5 895,-776.5 901,-770.5 907,-770.5"/>
<text text-anchor="start" x="956" y="-848.3" font-family="systemui,lato,Sans-serif" font-weight="bold" font-size="14.00" fill="white">Class: Toolbar</text>
<text text-anchor="start" x="1042" y="-848.3" font-family="systemui,lato,Sans-serif" font-size="14.00" fill="white"> &#160;&#160;&#160;&#160;&#160;&#160;&#160;&#160;&#160;&#160;</text>
<polyline fill="none" stroke="white" points="895,-839.5 1145,-839.5 "/>
<text text-anchor="start" x="903" y="-825.3" font-family="systemui,lato,Sans-serif" font-size="14.00" fill="white">+</text>
<text text-anchor="start" x="912" y="-825.3" font-family="systemui,lato,Sans-serif" font-weight="bold" font-size="14.00" fill="white">static</text>
<text text-anchor="start" x="946" y="-825.3" font-family="systemui,lato,Sans-serif" font-size="14.00" fill="white"> &#160;constructor(buttons, ...) &#160;&#160;&#160;&#160;&#160;&#160;&#160;&#160;&#160;&#160;</text>
<polyline fill="none" stroke="white" points="895,-816.5 1145,-816.5 "/>
<text text-anchor="start" x="980.5" y="-801.3" font-family="systemui,lato,Sans-serif" font-size="14.00" fill="white">+add() &#160;&#160;&#160;&#160;&#160;&#160;&#160;&#160;&#160;&#160;</text>
<polyline fill="none" stroke="white" points="895,-793.5 1145,-793.5 "/>
<text text-anchor="start" x="963" y="-778.3" font-family="systemui,lato,Sans-serif" font-size="14.00" fill="white">+addMany() &#160;&#160;&#160;&#160;&#160;&#160;&#160;&#160;&#160;&#160;</text>
</g>
<!-- Map&#45;&gt;Toolbar -->
<g id="edge8" class="edge">
<title>Map&#45;&gt;Toolbar</title>
<path fill="none" stroke="white" d="M944.16,-1091.34C927.71,-1045.95 905.7,-963.51 933,-900 938.92,-886.23 948.39,-873.68 958.95,-862.75"/>
<polygon fill="white" stroke="white" points="944.27,-1091.62 950.13,-1095.82 948.51,-1102.84 942.65,-1098.64 944.27,-1091.62"/>
</g>
<!-- Revisions -->
<g id="node6" class="node">
<title>Revisions</title>
<path fill="none" stroke="white" d="M953.5,-900.5C953.5,-900.5 1370.5,-900.5 1370.5,-900.5 1376.5,-900.5 1382.5,-906.5 1382.5,-912.5 1382.5,-912.5 1382.5,-995.5 1382.5,-995.5 1382.5,-1001.5 1376.5,-1007.5 1370.5,-1007.5 1370.5,-1007.5 953.5,-1007.5 953.5,-1007.5 947.5,-1007.5 941.5,-1001.5 941.5,-995.5 941.5,-995.5 941.5,-912.5 941.5,-912.5 941.5,-906.5 947.5,-900.5 953.5,-900.5"/>
<text text-anchor="start" x="1091.5" y="-993.3" font-family="systemui,lato,Sans-serif" font-weight="bold" font-size="14.00" fill="white">Class: Revisions</text>
<text text-anchor="start" x="1190.5" y="-993.3" font-family="systemui,lato,Sans-serif" font-size="14.00" fill="white"> &#160;&#160;&#160;&#160;&#160;&#160;&#160;&#160;&#160;&#160;</text>
<polyline fill="none" stroke="white" points="941.5,-984.5 1382.5,-984.5 "/>
<text text-anchor="start" x="1086.5" y="-970.3" font-family="systemui,lato,Sans-serif" font-size="14.00" fill="white">+</text>
<text text-anchor="start" x="1095.5" y="-970.3" font-family="systemui,lato,Sans-serif" font-weight="bold" font-size="14.00" fill="white">public</text>
<text text-anchor="start" x="1135.5" y="-970.3" font-family="systemui,lato,Sans-serif" font-size="14.00" fill="white"> &#160;property &#160;&#160;&#160;&#160;&#160;&#160;&#160;&#160;&#160;&#160;</text>
<polyline fill="none" stroke="white" points="941.5,-961.5 1382.5,-961.5 "/>
<text text-anchor="start" x="1022" y="-947.3" font-family="systemui,lato,Sans-serif" font-size="14.00" fill="white">+</text>
<text text-anchor="start" x="1031" y="-947.3" font-family="systemui,lato,Sans-serif" font-weight="bold" font-size="14.00" fill="white">static</text>
<text text-anchor="start" x="1065" y="-947.3" font-family="systemui,lato,Sans-serif" font-size="14.00" fill="white"> &#160;constructor(entries,parentEL)... &#160;&#160;&#160;&#160;&#160;&#160;&#160;&#160;&#160;&#160;</text>
<polyline fill="none" stroke="white" points="941.5,-938.5 1382.5,-938.5 "/>
<text text-anchor="start" x="949.5" y="-916.8" font-family="systemui,lato,Sans-serif" font-size="14.00" fill="white">+</text>
<text text-anchor="start" x="958.5" y="-916.8" font-family="systemui,lato,Sans-serif" font-weight="bold" font-size="14.00" fill="white">static</text>
<text text-anchor="start" x="992.5" y="-916.8" font-family="systemui,lato,Sans-serif" font-size="14.00" fill="white"> &#160;fromEl()</text>
<polyline fill="none" stroke="white" points="1056.5,-900.5 1056.5,-938.5 "/>
<text text-anchor="start" x="1137" y="-923.3" font-family="systemui,lato,Sans-serif" font-size="14.00" fill="white">Main method used to wrap</text>
<text text-anchor="start" x="1064.5" y="-908.3" font-family="systemui,lato,Sans-serif" font-size="14.00" fill="white"> all history li elements into Entry or EntryCB &#160;&#160;&#160;&#160;&#160;&#160;&#160;&#160;&#160;&#160;</text>
</g>
<!-- Array&#45;&gt;Revisions -->
<g id="edge2" class="edge">
<title>Array&#45;&gt;Revisions</title>
<path fill="none" stroke="white" d="M1115.55,-1091.15C1123.69,-1067.28 1134.76,-1034.85 1144.05,-1007.62"/>
<polygon fill="white" stroke="white" points="1115.46,-1091.42 1117.31,-1098.39 1111.58,-1102.78 1109.73,-1095.81 1115.46,-1091.42"/>
</g>
<!-- hh -->
<g id="node18" class="node">
<title>hh</title>
<path fill="none" stroke="green" stroke-width="2" d="M907,-381.5C907,-381.5 1111,-381.5 1111,-381.5 1117,-381.5 1123,-387.5 1123,-393.5 1123,-393.5 1123,-405.5 1123,-405.5 1123,-411.5 1117,-417.5 1111,-417.5 1111,-417.5 907,-417.5 907,-417.5 901,-417.5 895,-411.5 895,-405.5 895,-405.5 895,-393.5 895,-393.5 895,-387.5 901,-381.5 907,-381.5"/>
<text text-anchor="middle" x="1009" y="-395.8" font-family="systemui,lato,Sans-serif" font-size="14.00" fill="white">hh = new HH(toolbar, revisions, ... )</text>
</g>
<!-- HH&#45;&gt;hh -->
<g id="edge23" class="edge">
<title>HH&#45;&gt;hh</title>
<path fill="none" stroke="white" d="M1514.62,-1048.51C1517.76,-1047.3 1520.89,-1046.13 1524,-1045 1588.95,-1021.42 1622.55,-1052.98 1675,-1008 1694.36,-991.4 1697,-980.5 1697,-955 1697,-955 1697,-955 1697,-472.5 1697,-459.31 1692.34,-454.23 1681,-447.5 1635.23,-420.33 1314.69,-408.03 1133.34,-403.2"/>
<polygon fill="white" stroke="white" points="1133.3,-399.7 1123.21,-402.93 1133.12,-406.69 1133.3,-399.7"/>
</g>
<!-- toolbar -->
<g id="node17" class="node">
<title>toolbar</title>
<path fill="none" stroke="white" d="M843,-69.5C843,-69.5 977,-69.5 977,-69.5 983,-69.5 989,-75.5 989,-81.5 989,-81.5 989,-93.5 989,-93.5 989,-99.5 983,-105.5 977,-105.5 977,-105.5 843,-105.5 843,-105.5 837,-105.5 831,-99.5 831,-93.5 831,-93.5 831,-81.5 831,-81.5 831,-75.5 837,-69.5 843,-69.5"/>
<text text-anchor="middle" x="910" y="-83.8" font-family="systemui,lato,Sans-serif" font-size="14.00" fill="white">toolbar = new Toolbar()</text>
</g>
<!-- Toolbar&#45;&gt;toolbar -->
<g id="edge11" class="edge">
<title>Toolbar&#45;&gt;toolbar</title>
<path fill="none" stroke="#9799ff" d="M884.8,-813.82C607.45,-808.57 0,-787.03 0,-699 0,-699 0,-699 0,-161 0,-119.5 609.44,-97.37 830.84,-90.7"/>
<polygon fill="#9799ff" stroke="#9799ff" points="884.86,-817.32 894.93,-814.01 884.99,-810.32 884.86,-817.32"/>
</g>
<!-- Revisions2 -->
<g id="node7" class="node">
<title>Revisions2</title>
<path fill="none" stroke="white" d="M1175,-782C1175,-782 1327,-782 1327,-782 1333,-782 1339,-788 1339,-794 1339,-794 1339,-839 1339,-839 1339,-845 1333,-851 1327,-851 1327,-851 1175,-851 1175,-851 1169,-851 1163,-845 1163,-839 1163,-839 1163,-794 1163,-794 1163,-788 1169,-782 1175,-782"/>
<text text-anchor="start" x="1176.5" y="-836.8" font-family="systemui,lato,Sans-serif" font-weight="bold" font-size="14.00" fill="white">Class: Revisions2</text>
<text text-anchor="start" x="1283.5" y="-836.8" font-family="systemui,lato,Sans-serif" font-size="14.00" fill="white"> &#160;&#160;&#160;&#160;&#160;&#160;&#160;&#160;&#160;&#160;</text>
<polyline fill="none" stroke="white" points="1163,-828 1339,-828 "/>
<text text-anchor="start" x="1175.5" y="-813.8" font-family="systemui,lato,Sans-serif" font-size="14.00" fill="white">+</text>
<text text-anchor="start" x="1184.5" y="-813.8" font-family="systemui,lato,Sans-serif" font-weight="bold" font-size="14.00" fill="white">public</text>
<text text-anchor="start" x="1224.5" y="-813.8" font-family="systemui,lato,Sans-serif" font-size="14.00" fill="white"> &#160;property &#160;&#160;&#160;&#160;&#160;&#160;&#160;&#160;&#160;&#160;</text>
<polyline fill="none" stroke="white" points="1163,-805 1339,-805 "/>
<text text-anchor="start" x="1171" y="-790.8" font-family="systemui,lato,Sans-serif" font-size="14.00" fill="white">+</text>
<text text-anchor="start" x="1180" y="-790.8" font-family="systemui,lato,Sans-serif" font-weight="bold" font-size="14.00" fill="white">static</text>
<text text-anchor="start" x="1214" y="-790.8" font-family="systemui,lato,Sans-serif" font-size="14.00" fill="white"> &#160;init(entries) &#160;&#160;&#160;&#160;&#160;&#160;&#160;&#160;&#160;&#160;</text>
</g>
<!-- Revisions&#45;&gt;Revisions2 -->
<g id="edge3" class="edge">
<title>Revisions&#45;&gt;Revisions2</title>
<path fill="none" stroke="white" d="M1203.35,-890.05C1212.15,-876.64 1221.13,-862.98 1228.88,-851.18"/>
<polygon fill="white" stroke="white" points="1203.25,-890.19 1203.3,-897.41 1196.66,-900.22 1196.62,-893.01 1203.25,-890.19"/>
</g>
<!-- Contributions -->
<g id="node8" class="node">
<title>Contributions</title>
<path fill="none" stroke="white" d="M1144.5,-663.5C1144.5,-663.5 1305.5,-663.5 1305.5,-663.5 1311.5,-663.5 1317.5,-669.5 1317.5,-675.5 1317.5,-675.5 1317.5,-720.5 1317.5,-720.5 1317.5,-726.5 1311.5,-732.5 1305.5,-732.5 1305.5,-732.5 1144.5,-732.5 1144.5,-732.5 1138.5,-732.5 1132.5,-726.5 1132.5,-720.5 1132.5,-720.5 1132.5,-675.5 1132.5,-675.5 1132.5,-669.5 1138.5,-663.5 1144.5,-663.5"/>
<text text-anchor="start" x="1140.5" y="-718.3" font-family="systemui,lato,Sans-serif" font-weight="bold" font-size="14.00" fill="white">Class: Contributions</text>
<text text-anchor="start" x="1267.5" y="-718.3" font-family="systemui,lato,Sans-serif" font-size="14.00" fill="white"> &#160;&#160;&#160;&#160;&#160;&#160;&#160;&#160;&#160;&#160;</text>
<polyline fill="none" stroke="white" points="1132.5,-709.5 1317.5,-709.5 "/>
<text text-anchor="start" x="1149.5" y="-695.3" font-family="systemui,lato,Sans-serif" font-size="14.00" fill="white">+</text>
<text text-anchor="start" x="1158.5" y="-695.3" font-family="systemui,lato,Sans-serif" font-weight="bold" font-size="14.00" fill="white">public</text>
<text text-anchor="start" x="1198.5" y="-695.3" font-family="systemui,lato,Sans-serif" font-size="14.00" fill="white"> &#160;property &#160;&#160;&#160;&#160;&#160;&#160;&#160;&#160;&#160;&#160;</text>
<polyline fill="none" stroke="white" points="1132.5,-686.5 1317.5,-686.5 "/>
<text text-anchor="start" x="1145" y="-672.3" font-family="systemui,lato,Sans-serif" font-size="14.00" fill="white">+</text>
<text text-anchor="start" x="1154" y="-672.3" font-family="systemui,lato,Sans-serif" font-weight="bold" font-size="14.00" fill="white">static</text>
<text text-anchor="start" x="1188" y="-672.3" font-family="systemui,lato,Sans-serif" font-size="14.00" fill="white"> &#160;init(entries) &#160;&#160;&#160;&#160;&#160;&#160;&#160;&#160;&#160;&#160;</text>
</g>
<!-- Revisions2&#45;&gt;Contributions -->
<g id="edge4" class="edge">
<title>Revisions2&#45;&gt;Contributions</title>
<path fill="none" stroke="white" d="M1240.79,-769.77C1238.03,-757.38 1235.09,-744.21 1232.5,-732.62"/>
<polygon fill="white" stroke="white" points="1240.87,-770.09 1246.08,-775.08 1243.48,-781.8 1238.27,-776.82 1240.87,-770.09"/>
</g>
<!-- revisions -->
<g id="node23" class="node">
<title>revisions</title>
<path fill="none" stroke="white" d="M1403,-558.5C1403,-558.5 1657,-558.5 1657,-558.5 1663,-558.5 1669,-564.5 1669,-570.5 1669,-570.5 1669,-584.5 1669,-584.5 1669,-590.5 1663,-596.5 1657,-596.5 1657,-596.5 1403,-596.5 1403,-596.5 1397,-596.5 1391,-590.5 1391,-584.5 1391,-584.5 1391,-570.5 1391,-570.5 1391,-564.5 1397,-558.5 1403,-558.5"/>
<text text-anchor="middle" x="1530" y="-581.3" font-family="systemui,lato,Sans-serif" font-size="14.00" fill="white">revisions</text>
<text text-anchor="middle" x="1530" y="-566.3" font-family="systemui,lato,Sans-serif" font-size="14.00" fill="white">= new Revisions2.fromEl(..., new EntryCB())</text>
</g>
<!-- Revisions2&#45;&gt;revisions -->
<g id="edge17" class="edge">
<title>Revisions2&#45;&gt;revisions</title>
<path fill="none" stroke="#9799ff" d="M1292.48,-774.54C1304.34,-761.8 1316.8,-747.32 1327,-733 1349.85,-700.94 1340.47,-682.13 1369,-655 1397.48,-627.92 1437.33,-608.88 1470.25,-596.57"/>
<polygon fill="#9799ff" stroke="#9799ff" points="1289.92,-772.16 1285.59,-781.83 1295.01,-776.97 1289.92,-772.16"/>
</g>
<!-- contributions -->
<g id="node24" class="node">
<title>contributions</title>
<path fill="none" stroke="white" d="M1089,-558.5C1089,-558.5 1361,-558.5 1361,-558.5 1367,-558.5 1373,-564.5 1373,-570.5 1373,-570.5 1373,-584.5 1373,-584.5 1373,-590.5 1367,-596.5 1361,-596.5 1361,-596.5 1089,-596.5 1089,-596.5 1083,-596.5 1077,-590.5 1077,-584.5 1077,-584.5 1077,-570.5 1077,-570.5 1077,-564.5 1083,-558.5 1089,-558.5"/>
<text text-anchor="middle" x="1225" y="-581.3" font-family="systemui,lato,Sans-serif" font-size="14.00" fill="white">revisions</text>
<text text-anchor="middle" x="1225" y="-566.3" font-family="systemui,lato,Sans-serif" font-size="14.00" fill="white">= new Contributions.fromEl(..., new EntryCB())</text>
</g>
<!-- Contributions&#45;&gt;contributions -->
<g id="edge18" class="edge">
<title>Contributions&#45;&gt;contributions</title>
<path fill="none" stroke="#9799ff" d="M1225,-653.14C1225,-633.65 1225,-611.78 1225,-596.78"/>
<polygon fill="#9799ff" stroke="#9799ff" points="1221.5,-653.36 1225,-663.36 1228.5,-653.36 1221.5,-653.36"/>
</g>
<!-- EntryCB -->
<g id="node10" class="node">
<title>EntryCB</title>
<path fill="none" stroke="white" d="M1467.5,-793.5C1467.5,-793.5 1592.5,-793.5 1592.5,-793.5 1598.5,-793.5 1604.5,-799.5 1604.5,-805.5 1604.5,-805.5 1604.5,-827.5 1604.5,-827.5 1604.5,-833.5 1598.5,-839.5 1592.5,-839.5 1592.5,-839.5 1467.5,-839.5 1467.5,-839.5 1461.5,-839.5 1455.5,-833.5 1455.5,-827.5 1455.5,-827.5 1455.5,-805.5 1455.5,-805.5 1455.5,-799.5 1461.5,-793.5 1467.5,-793.5"/>
<text text-anchor="start" x="1463.5" y="-825.3" font-family="systemui,lato,Sans-serif" font-weight="bold" font-size="14.00" fill="white">Class: EntryCB</text>
<text text-anchor="start" x="1554.5" y="-825.3" font-family="systemui,lato,Sans-serif" font-size="14.00" fill="white"> &#160;&#160;&#160;&#160;&#160;&#160;&#160;&#160;&#160;&#160;</text>
<polyline fill="none" stroke="white" points="1455.5,-816.5 1604.5,-816.5 "/>
<text text-anchor="start" x="1470.5" y="-801.3" font-family="systemui,lato,Sans-serif" font-size="14.00" fill="white">+isChecked() &#160;&#160;&#160;&#160;&#160;&#160;&#160;&#160;&#160;&#160;</text>
</g>
<!-- Entry&#45;&gt;EntryCB -->
<g id="edge6" class="edge">
<title>Entry&#45;&gt;EntryCB</title>
<path fill="none" stroke="white" d="M1531.98,-907.02C1531.48,-884.38 1530.9,-858.1 1530.5,-839.9"/>
<polygon fill="white" stroke="white" points="1531.98,-907.16 1536.12,-913.07 1532.25,-919.16 1528.12,-913.25 1531.98,-907.16"/>
</g>
<!-- EntryCB&#45;&gt;revisions -->
<g id="edge19" class="edge">
<title>EntryCB&#45;&gt;revisions</title>
<path fill="none" stroke="white" d="M1530,-783.14C1530,-732.58 1530,-636.52 1530,-596.6"/>
<polygon fill="white" stroke="white" points="1526.5,-783.2 1530,-793.2 1533.5,-783.2 1526.5,-783.2"/>
<text text-anchor="middle" x="1590.5" y="-694.3" font-family="systemui,lato,Sans-serif" font-size="14.00" fill="white">if (Article Revisions)</text>
</g>
<!-- EntryCB&#45;&gt;contributions -->
<g id="edge20" class="edge">
<title>EntryCB&#45;&gt;contributions</title>
<path fill="none" stroke="white" d="M1492.58,-787.02C1471.96,-771.23 1445.95,-751.17 1423,-733 1379.89,-698.88 1370.33,-688.83 1327,-655 1301,-634.7 1270.72,-612.12 1249.94,-596.78"/>
<polygon fill="white" stroke="white" points="1490.71,-790 1500.78,-793.29 1494.96,-784.43 1490.71,-790"/>
<text text-anchor="middle" x="1474.5" y="-694.3" font-family="systemui,lato,Sans-serif" font-size="14.00" fill="white">if (Contributions)</text>
</g>
<!-- ClipboardBuffer -->
<g id="node11" class="node">
<title>ClipboardBuffer</title>
<path fill="none" stroke="white" d="M1544.5,-1103C1544.5,-1103 1717.5,-1103 1717.5,-1103 1723.5,-1103 1729.5,-1109 1729.5,-1115 1729.5,-1115 1729.5,-1137 1729.5,-1137 1729.5,-1143 1723.5,-1149 1717.5,-1149 1717.5,-1149 1544.5,-1149 1544.5,-1149 1538.5,-1149 1532.5,-1143 1532.5,-1137 1532.5,-1137 1532.5,-1115 1532.5,-1115 1532.5,-1109 1538.5,-1103 1544.5,-1103"/>
<text text-anchor="start" x="1540.5" y="-1134.8" font-family="systemui,lato,Sans-serif" font-weight="bold" font-size="14.00" fill="white">Class: ClipboardBuffer</text>
<text text-anchor="start" x="1679.5" y="-1134.8" font-family="systemui,lato,Sans-serif" font-size="14.00" fill="white"> &#160;&#160;&#160;&#160;&#160;&#160;&#160;&#160;&#160;&#160;</text>
<polyline fill="none" stroke="white" points="1532.5,-1126 1729.5,-1126 "/>
<text text-anchor="start" x="1605.5" y="-1110.8" font-family="systemui,lato,Sans-serif" font-size="14.00" fill="white">... &#160;&#160;&#160;&#160;&#160;&#160;&#160;&#160;&#160;&#160;</text>
</g>
<!-- clipboardBuffer -->
<g id="node21" class="node">
<title>clipboardBuffer</title>
<polygon fill="none" stroke="white" points="1338.5,-304.5 1165.5,-304.5 1165.5,-266.5 1338.5,-266.5 1338.5,-304.5"/>
<text text-anchor="middle" x="1252" y="-289.3" font-family="systemui,lato,Sans-serif" font-size="14.00" fill="white">clipboard</text>
<text text-anchor="middle" x="1252" y="-274.3" font-family="systemui,lato,Sans-serif" font-size="14.00" fill="white">= new ClipboardBuffer(...) </text>
</g>
<!-- ClipboardBuffer&#45;&gt;clipboardBuffer -->
<g id="edge10" class="edge">
<title>ClipboardBuffer&#45;&gt;clipboardBuffer</title>
<path fill="none" stroke="#9799ff" d="M1662.76,-1095.75C1693.35,-1064.25 1735,-1011.05 1735,-955 1735,-955 1735,-955 1735,-398.5 1735,-318.07 1477.62,-295.38 1338.63,-289"/>
<polygon fill="#9799ff" stroke="#9799ff" points="1660.22,-1093.34 1655.65,-1102.9 1665.18,-1098.28 1660.22,-1093.34"/>
</g>
<!-- ButtonWidget -->
<g id="node12" class="node">
<title>ButtonWidget</title>
<g id="a_node12"><a xlink:href="https://doc.wikimedia.org/oojs-ui/master/js/#!/api/OO.ui.ButtonWidget" xlink:title="{&#10; &#160;&#160;&#160;&#160;&#160;&#160;&#160;&#160;&#160;&#160;&#160;&lt;b&gt;Class: OO.ui.ButtonGroupWidget&lt;/b&gt;&#10; &#160;&#160;&#160;&#160;&#160;&#160;&#160;&#160;&#160;&#160;&#160;|...&#10; &#160;&#160;&#160;&#160;&#160;&#160;&#160;&#160;&#160;&#160;&#160;}">
<polygon fill="none" stroke="white" points="66.5,-262.5 66.5,-308.5 333.5,-308.5 333.5,-262.5 66.5,-262.5"/>
<text text-anchor="start" x="74.5" y="-294.3" font-family="systemui,lato,Sans-serif" font-weight="bold" font-size="14.00" fill="white">Class: OO.ui.ButtonGroupWidget</text>
<text text-anchor="start" x="283.5" y="-294.3" font-family="systemui,lato,Sans-serif" font-size="14.00" fill="white"> &#160;&#160;&#160;&#160;&#160;&#160;&#160;&#160;&#160;&#160;</text>
<polyline fill="none" stroke="white" points="66.5,-285.5 333.5,-285.5 "/>
<text text-anchor="start" x="174.5" y="-270.3" font-family="systemui,lato,Sans-serif" font-size="14.00" fill="white">... &#160;&#160;&#160;&#160;&#160;&#160;&#160;&#160;&#160;&#160;</text>
</a>
</g>
</g>
<!-- button -->
<g id="node19" class="node">
<title>button</title>
<path fill="none" stroke="white" d="M843.5,-144C843.5,-144 876.5,-144 876.5,-144 882.5,-144 888.5,-150 888.5,-156 888.5,-156 888.5,-168 888.5,-168 888.5,-174 882.5,-180 876.5,-180 876.5,-180 843.5,-180 843.5,-180 837.5,-180 831.5,-174 831.5,-168 831.5,-168 831.5,-156 831.5,-156 831.5,-150 837.5,-144 843.5,-144"/>
<text text-anchor="middle" x="860" y="-158.3" font-family="systemui,lato,Sans-serif" font-size="14.00" fill="white">button</text>
</g>
<!-- ButtonWidget&#45;&gt;button -->
<g id="edge12" class="edge">
<title>ButtonWidget&#45;&gt;button</title>
<path fill="none" stroke="#9799ff" d="M312.24,-260.34C322.63,-258.17 333.01,-256.03 343,-254 469.86,-228.28 501.48,-221.19 629,-199 701.78,-186.34 787.83,-173.48 831.5,-167.11"/>
<polygon fill="#9799ff" stroke="#9799ff" points="311.35,-256.95 302.28,-262.42 312.78,-263.8 311.35,-256.95"/>
</g>
<!-- PopupButtonWidget -->
<g id="node13" class="node">
<title>PopupButtonWidget</title>
<g id="a_node13"><a xlink:href="https://doc.wikimedia.org/oojs-ui/master/js/#!/api/OO.ui.PopupButtonWidget" xlink:title="{&#10; &#160;&#160;&#160;&#160;&#160;&#160;&#160;&#160;&#160;&#160;&#160;&lt;b&gt;Class: OO.ui.PopupButtonWidget&lt;/b&gt;&#10; &#160;&#160;&#160;&#160;&#160;&#160;&#160;&#160;&#160;&#160;&#160;|{| Popup (mouseover preview) widget}&#10; &#160;&#160;&#160;&#160;&#160;&#160;&#160;&#160;&#160;&#160;&#160;}">
<polygon fill="none" stroke="white" points="351.5,-262.5 351.5,-308.5 620.5,-308.5 620.5,-262.5 351.5,-262.5"/>
<text text-anchor="start" x="359.5" y="-294.3" font-family="systemui,lato,Sans-serif" font-weight="bold" font-size="14.00" fill="white">Class: OO.ui.PopupButtonWidget</text>
<text text-anchor="start" x="570.5" y="-294.3" font-family="systemui,lato,Sans-serif" font-size="14.00" fill="white"> &#160;&#160;&#160;&#160;&#160;&#160;&#160;&#160;&#160;&#160;</text>
<polyline fill="none" stroke="white" points="351.5,-285.5 620.5,-285.5 "/>
<text text-anchor="start" x="364" y="-270.3" font-family="systemui,lato,Sans-serif" font-size="14.00" fill="white"> </text>
<polyline fill="none" stroke="white" points="380.5,-262.5 380.5,-285.5 "/>
<text text-anchor="start" x="393.5" y="-270.3" font-family="systemui,lato,Sans-serif" font-size="14.00" fill="white">Popup (mouseover preview) widget</text>
</a>
</g>
</g>
<!-- popupButton -->
<g id="node20" class="node">
<title>popupButton</title>
<polygon fill="none" stroke="white" points="1128,-181 928,-181 928,-143 1128,-143 1128,-181"/>
<text text-anchor="middle" x="1028" y="-165.8" font-family="systemui,lato,Sans-serif" font-size="14.00" fill="white">popupButton</text>
<text text-anchor="middle" x="1028" y="-150.8" font-family="systemui,lato,Sans-serif" font-size="14.00" fill="white">= new PopupButtonWidget(...)</text>
</g>
<!-- PopupButtonWidget&#45;&gt;popupButton -->
<g id="edge13" class="edge">
<title>PopupButtonWidget&#45;&gt;popupButton</title>
<path fill="none" stroke="#9799ff" d="M571.52,-259.68C636.76,-241.31 729.06,-216.54 811,-199 849,-190.87 891.07,-183.51 927.98,-177.6"/>
<polygon fill="#9799ff" stroke="#9799ff" points="570.37,-256.37 561.69,-262.45 572.27,-263.1 570.37,-256.37"/>
<text text-anchor="middle" x="907.5" y="-232.8" font-family="systemui,lato,Sans-serif" font-size="14.00" fill="white">button = new ...GroupWidget(...)</text>
<text text-anchor="middle" x="907.5" y="-217.8" font-family="systemui,lato,Sans-serif" font-size="14.00" fill="white"> = new ...ButtonWidget(...)</text>
<text text-anchor="middle" x="907.5" y="-202.8" font-family="systemui,lato,Sans-serif" font-size="14.00" fill="white">= new MessageWidget</text>
</g>
<!-- interaction -->
<g id="node14" class="node">
<title>interaction</title>
<polygon fill="none" stroke="white" points="466.5,-596.5 375.5,-596.5 375.5,-558.5 466.5,-558.5 466.5,-596.5"/>
<text text-anchor="middle" x="421" y="-581.3" font-family="systemui,lato,Sans-serif" font-size="14.00" fill="white">User input</text>
<text text-anchor="middle" x="421" y="-566.3" font-family="systemui,lato,Sans-serif" font-size="14.00" fill="white">(mouse etc.)</text>
</g>
<!-- interaction&#45;&gt;button -->
<g id="edge30" class="edge">
<title>interaction&#45;&gt;button</title>
<path fill="none" stroke="white" d="M375.18,-573.95C273.52,-567.04 38,-543.57 38,-474.5 38,-474.5 38,-474.5 38,-284.5 38,-269.19 41.58,-262.95 54,-254 179.35,-163.71 681.88,-161.34 822.98,-162.51"/>
<ellipse fill="white" stroke="white" cx="827.37" cy="-162.55" rx="4" ry="4"/>
</g>
<!-- contribs_OR_Revisions -->
<g id="node22" class="node">
<title>contribs_OR_Revisions</title>
<polygon fill="none" stroke="white" points="1169,-491.5 1134.98,-473.5 1169,-455.5 1203.02,-473.5 1169,-491.5"/>
<text text-anchor="middle" x="1169" y="-469.8" font-family="systemui,lato,Sans-serif" font-size="14.00" fill="white">OR</text>
</g>
<!-- interaction&#45;&gt;contribs_OR_Revisions -->
<g id="edge29" class="edge">
<title>interaction&#45;&gt;contribs_OR_Revisions</title>
<path fill="none" stroke="white" d="M466.82,-575.97C581.13,-573.6 887.28,-560.77 1131,-492 1135.25,-490.8 1139.62,-489.19 1143.81,-487.42"/>
<polygon fill="white" stroke="white" points="1145.52,-490.49 1153.15,-483.15 1142.6,-484.13 1145.52,-490.49"/>
<text text-anchor="middle" x="1090.5" y="-528.8" font-family="systemui,lato,Sans-serif" font-size="14.00" fill="white">Update</text>
<text text-anchor="middle" x="1090.5" y="-513.8" font-family="systemui,lato,Sans-serif" font-size="14.00" fill="white">checkboxes</text>
</g>
<!-- document -->
<g id="node15" class="node">
<title>document</title>
<polygon fill="none" stroke="transparent" points="1024.5,-596.5 867.5,-596.5 867.5,-558.5 1024.5,-558.5 1024.5,-596.5"/>
<polyline fill="none" stroke="white" points="867.5,-558.5 1024.5,-558.5 "/>
<text text-anchor="middle" x="946" y="-581.3" font-family="systemui,lato,Sans-serif" font-size="14.00" fill="white">html document:</text>
<text text-anchor="middle" x="946" y="-566.3" font-family="systemui,lato,Sans-serif" font-size="14.00" fill="white">https://xx.wikipedia.org</text>
</g>
<!-- HTMLRawhistory -->
<g id="node16" class="node">
<title>HTMLRawhistory</title>
<path fill="none" stroke="white" d="M842.5,-455.5C842.5,-455.5 1049.5,-455.5 1049.5,-455.5 1055.5,-455.5 1061.5,-461.5 1061.5,-467.5 1061.5,-467.5 1061.5,-479.5 1061.5,-479.5 1061.5,-485.5 1055.5,-491.5 1049.5,-491.5 1049.5,-491.5 842.5,-491.5 842.5,-491.5 836.5,-491.5 830.5,-485.5 830.5,-479.5 830.5,-479.5 830.5,-467.5 830.5,-467.5 830.5,-461.5 836.5,-455.5 842.5,-455.5"/>
<text text-anchor="middle" x="946" y="-469.8" font-family="systemui,lato,Sans-serif" font-size="14.00" fill="white">rawRevisions = document &gt; ul &gt; li...</text>
</g>
<!-- document&#45;&gt;HTMLRawhistory -->
<g id="edge25" class="edge">
<title>document&#45;&gt;HTMLRawhistory</title>
<path fill="none" stroke="white" d="M946,-558.26C946,-542.53 946,-519.58 946,-501.68"/>
<polygon fill="white" stroke="white" points="946,-491.56 950.5,-501.56 946,-496.56 946,-501.56 946,-501.56 946,-501.56 946,-496.56 941.5,-501.56 946,-491.56 946,-491.56"/>
</g>
<!-- HTMLRawhistory&#45;&gt;hh -->
<g id="edge26" class="edge">
<title>HTMLRawhistory&#45;&gt;hh</title>
<path fill="none" stroke="white" d="M960.93,-455.44C968.74,-446.51 978.45,-435.42 987.09,-425.54"/>
<polygon fill="white" stroke="white" points="993.74,-417.94 990.54,-428.43 990.45,-421.7 987.15,-425.47 987.15,-425.47 987.15,-425.47 990.45,-421.7 983.77,-422.5 993.74,-417.94 993.74,-417.94"/>
</g>
<!-- toolbar&#45;&gt;hh -->
<g id="edge24" class="edge">
<title>toolbar&#45;&gt;hh</title>
<path fill="none" stroke="white" d="M910.17,-105.81C910.7,-124.59 912.59,-155.33 919,-181 936.97,-252.97 974.71,-332.24 995.15,-372.27"/>
<polygon fill="white" stroke="white" points="999.83,-381.34 991.24,-374.52 997.53,-376.9 995.24,-372.45 995.24,-372.45 995.24,-372.45 997.53,-376.9 999.24,-370.39 999.83,-381.34 999.83,-381.34"/>
</g>
<!-- hh&#45;&gt;popupButton -->
<g id="edge28" class="edge">
<title>hh&#45;&gt;popupButton</title>
<path fill="none" stroke="green" d="M1010.04,-381.14C1011.69,-353.99 1015.15,-299.86 1019,-254 1020.77,-232.94 1023.13,-209.17 1024.99,-191.21"/>
<polygon fill="green" stroke="green" points="1028.49,-191.42 1026.05,-181.11 1021.53,-190.7 1028.49,-191.42"/>
<text text-anchor="middle" x="1088" y="-289.3" font-family="systemui,lato,Sans-serif" font-size="14.00" fill="white">Update</text>
<text text-anchor="middle" x="1088" y="-274.3" font-family="systemui,lato,Sans-serif" font-size="14.00" fill="white">popup&#45;widget content</text>
</g>
<!-- hh&#45;&gt;clipboardBuffer -->
<g id="edge32" class="edge">
<title>hh&#45;&gt;clipboardBuffer</title>
<path fill="none" stroke="green" d="M1053.61,-381.4C1081.83,-370.27 1118.9,-355.07 1151,-340 1170.88,-330.66 1192.46,-319.4 1210.54,-309.62"/>
<polygon fill="green" stroke="green" points="1212.54,-312.51 1219.65,-304.66 1209.2,-306.36 1212.54,-312.51"/>
</g>
<!-- Document &lt;script src=... &gt;\nmain -->
<g id="node25" class="node">
<title>Document &lt;script src=... &gt;\nmain</title>
<path fill="none" stroke="white" d="M650.5,-266.5C650.5,-266.5 803.5,-266.5 803.5,-266.5 809.5,-266.5 815.5,-272.5 815.5,-278.5 815.5,-278.5 815.5,-292.5 815.5,-292.5 815.5,-298.5 809.5,-304.5 803.5,-304.5 803.5,-304.5 650.5,-304.5 650.5,-304.5 644.5,-304.5 638.5,-298.5 638.5,-292.5 638.5,-292.5 638.5,-278.5 638.5,-278.5 638.5,-272.5 644.5,-266.5 650.5,-266.5"/>
<text text-anchor="middle" x="727" y="-289.3" font-family="systemui,lato,Sans-serif" font-size="14.00" fill="white">Document &lt;script src=... &gt;</text>
<text text-anchor="middle" x="727" y="-274.3" font-family="systemui,lato,Sans-serif" font-size="14.00" fill="white">main</text>
</g>
<!-- hh&#45;&gt;Document &lt;script src=... &gt;\nmain -->
<g id="edge31" class="edge">
<title>hh&#45;&gt;Document &lt;script src=... &gt;\nmain</title>
<path fill="none" stroke="white" d="M927.77,-378.69C893.68,-369.03 854.1,-356 820,-340 797.74,-329.56 773.71,-315.66 755.65,-304.65"/>
<polygon fill="white" stroke="white" points="927.12,-382.15 937.7,-381.46 929,-375.4 927.12,-382.15"/>
<text text-anchor="middle" x="886" y="-351.8" font-family="systemui,lato,Sans-serif" font-size="14.00" fill="white">Call</text>
</g>
<!-- button&#45;&gt;toolbar -->
<g id="edge14" class="edge">
<title>button&#45;&gt;toolbar</title>
<path fill="none" stroke="white" d="M871.85,-143.82C878.01,-134.88 885.67,-123.78 892.5,-113.87"/>
<polygon fill="white" stroke="white" points="895.44,-115.78 898.24,-105.56 889.68,-111.8 895.44,-115.78"/>
</g>
<!-- popupButton&#45;&gt;toolbar -->
<g id="edge15" class="edge">
<title>popupButton&#45;&gt;toolbar</title>
<path fill="none" stroke="white" d="M998.53,-142.89C982.86,-133.27 963.45,-121.34 946.8,-111.11"/>
<polygon fill="white" stroke="white" points="948.23,-107.88 937.88,-105.63 944.57,-113.85 948.23,-107.88"/>
</g>
<!-- clipboardBuffer&#45;&gt;popupButton -->
<g id="edge16" class="edge">
<title>clipboardBuffer&#45;&gt;popupButton</title>
<path fill="none" stroke="white" d="M1218.46,-266.31C1178.93,-244.86 1113.17,-209.2 1070.2,-185.89"/>
<polygon fill="white" stroke="white" points="1071.86,-182.81 1061.4,-181.12 1068.52,-188.96 1071.86,-182.81"/>
</g>
<!-- contribs_OR_Revisions&#45;&gt;hh -->
<g id="edge27" class="edge">
<title>contribs_OR_Revisions&#45;&gt;hh</title>
<path fill="none" stroke="white" d="M1155.36,-462.5C1148.3,-457.6 1139.43,-451.83 1131,-447.5 1111.74,-437.6 1089.9,-428.55 1070.07,-421.1"/>
<polygon fill="white" stroke="white" points="1071.11,-417.75 1060.51,-417.57 1068.68,-424.32 1071.11,-417.75"/>
</g>
<!-- revisions&#45;&gt;contribs_OR_Revisions -->
<g id="edge21" class="edge">
<title>revisions&#45;&gt;contribs_OR_Revisions</title>
<path fill="none" stroke="white" d="M1466.29,-558.5C1388.19,-536.43 1258.97,-499.92 1200.03,-483.27"/>
<polygon fill="white" stroke="white" points="1200.78,-479.84 1190.2,-480.49 1198.87,-486.58 1200.78,-479.84"/>
</g>
<!-- contributions&#45;&gt;contribs_OR_Revisions -->
<g id="edge22" class="edge">
<title>contributions&#45;&gt;contribs_OR_Revisions</title>
<path fill="none" stroke="white" d="M1216.72,-558.43C1210.35,-544.89 1201.12,-526.01 1192,-510 1189.3,-505.26 1186.23,-500.27 1183.23,-495.59"/>
<polygon fill="white" stroke="white" points="1186.07,-493.55 1177.66,-487.1 1180.21,-497.38 1186.07,-493.55"/>
</g>
</g>
</svg>
