<?xml version="1.0" encoding="utf-8"?>
<svg viewBox="0 0 256 256" xmlns="http://www.w3.org/2000/svg" xmlns:xlink="http://www.w3.org/1999/xlink">
  <title>HistoryHelper - Wikipedia plugin by Alexander Davronov al.neodim@gmail.com</title>
  <defs>
    <linearGradient id="color-1">
      <stop style="stop-color: rgb(55, 62, 71);"/>
    </linearGradient>
    <linearGradient id="gradient-5-0" gradientUnits="userSpaceOnUse" x1="128" y1="59.007" x2="128" y2="196.993" gradientTransform="matrix(0.789264, 0, 0, 0.789264, 27.270143, 12.787149)" xlink:href="#gradient-5"/>
    <linearGradient id="gradient-5">
      <stop offset="0" style="stop-color: rgb(226, 226, 226);"/>
      <stop offset="1" style="stop-color: rgb(83, 83, 83);"/>
    </linearGradient>
    <filter id="filter-2" color-interpolation-filters="sRGB" x="-500%" y="-500%" width="1000%" height="1000%">
      <feGaussianBlur in="SourceAlpha" stdDeviation="5"/>
      <feOffset dx="10" dy="10"/>
      <feComponentTransfer result="offsetblur">
        <feFuncA id="feFuncA-2" type="linear" slope="0.48"/>
      </feComponentTransfer>
      <feFlood flood-color="rgba(0,0,0,0.3)"/>
      <feComposite in2="offsetblur" operator="in"/>
      <feMerge>
        <feMergeNode/>
        <feMergeNode in="SourceGraphic"/>
      </feMerge>
    </filter>
  </defs>
  <rect y="15.807" width="224" height="224" rx="32.705" ry="32.705" style="stroke-width: 4px; stroke: rgb(255, 255, 255); fill: url(#color-1);" x="15.799"/>
  <path d="M 69.967 38.044 C 69.967 38.044 103.987 41.456 103.988 43.765 L 103.991 92.962 C 103.994 94.176 105.965 101.893 117.533 104.975 L 137.486 105.377 C 150.45 102.647 152.598 94.332 152.598 93.025 L 152.594 43.826 C 152.591 41.355 186.607 38.189 186.607 38.189 C 186.607 38.189 186.58 40.471 186.537 44.309 C 184.732 45.483 183.54 47.52 183.54 49.834 L 183.54 73.396 C 181.005 74.313 179.193 76.741 179.193 79.594 L 179.193 147.271 C 179.193 150.122 181.005 152.55 183.54 153.467 L 183.54 177.793 C 183.54 180.114 184.739 182.155 186.553 183.329 C 186.597 187.248 186.625 189.582 186.625 189.582 C 186.625 189.582 152.609 186.336 152.61 183.864 L 152.601 134.661 C 152.603 133.553 151.057 126.931 142.683 123.124 L 113.833 123.124 C 105.53 126.916 103.998 133.495 103.998 134.598 L 104.003 183.803 C 104.006 186.273 69.986 189.437 69.986 189.437 C 69.986 189.437 69.985 186.844 69.984 182.535 C 71.227 181.337 71.999 179.655 71.999 177.793 L 71.999 153.656 C 74.849 152.931 76.958 150.346 76.958 147.271 L 76.958 79.594 C 76.958 76.518 74.849 73.933 71.999 73.208 L 71.999 49.834 C 71.999 47.963 71.22 46.274 69.967 45.074 C 69.967 40.69 69.967 38.044 69.967 38.044 Z" style="paint-order: fill; stroke-width: 0px; stroke: rgb(255, 255, 255); fill-opacity: 0.9; opacity: 0.15;"/>
  <path d="M 86.376 59.359 C 86.376 59.359 110.826 61.812 110.826 63.471 L 110.829 98.828 C 110.83 99.7 112.247 105.246 120.561 107.461 L 134.901 107.751 C 144.218 105.789 145.762 99.812 145.762 98.872 L 145.758 63.515 C 145.757 61.738 170.203 59.463 170.203 59.463 C 170.203 59.463 170.184 61.104 170.153 63.861 C 168.856 64.706 167.998 66.169 167.998 67.833 L 167.998 84.766 C 166.177 85.426 164.875 87.171 164.875 89.22 L 164.875 137.858 C 164.875 139.908 166.177 141.653 167.998 142.312 L 167.998 159.794 C 167.998 161.462 168.861 162.929 170.164 163.773 C 170.196 166.589 170.216 168.267 170.216 168.267 C 170.216 168.267 145.77 165.934 145.77 164.158 L 145.764 128.796 C 145.765 128 144.654 123.241 138.636 120.505 L 117.901 120.505 C 111.935 123.23 110.834 127.958 110.834 128.751 L 110.837 164.114 C 110.84 165.889 86.39 168.163 86.39 168.163 C 86.39 168.163 86.389 166.298 86.388 163.203 C 87.281 162.342 87.837 161.133 87.837 159.794 L 87.837 142.448 C 89.885 141.926 91.399 140.069 91.399 137.858 L 91.399 89.22 C 91.399 87.01 89.885 85.152 87.837 84.631 L 87.837 67.833 C 87.837 66.488 87.276 65.274 86.376 64.411 C 86.376 61.261 86.376 59.359 86.376 59.359 Z" style="paint-order: fill; stroke-width: 0px; filter: url(#filter-2); stroke: rgb(255, 255, 255); fill-opacity: 0.9; fill: url(#gradient-5-0);"/>
  <g transform="matrix(1, 0, 0, 1, 1.395988, 0)">
    <path d="M 122.543 198.985 L 124.355 198.985 L 124.355 216 L 122.543 216 L 122.543 207.066 L 113.483 207.066 L 113.483 216 L 111.671 216 L 111.671 198.985 L 113.483 198.985 L 113.483 205.311 L 122.543 205.311 L 122.543 198.985 Z M 139.676 205.311 L 139.676 207.066 L 131.687 207.066 L 131.687 214.245 L 140.337 214.245 L 140.337 216 L 129.875 216 L 129.875 198.985 L 140.394 198.985 L 140.394 200.741 L 131.687 200.741 L 131.687 205.311 L 139.676 205.311 Z M 155.922 216 L 145.403 216 L 145.403 198.985 L 147.215 198.985 L 147.215 214.245 L 155.922 214.245 L 155.922 216 Z M 160.931 216 L 160.931 198.985 L 167.256 198.985 C 168.563 198.985 169.673 199.447 170.584 200.37 C 171.496 201.293 171.952 202.404 171.952 203.703 C 171.952 204.995 171.5 206.101 170.596 207.02 C 169.691 207.939 168.597 208.399 167.313 208.399 L 162.743 208.399 L 162.743 216 L 160.931 216 Z M 162.743 206.61 L 167.313 206.61 C 168.081 206.61 168.744 206.327 169.302 205.76 C 169.86 205.194 170.14 204.509 170.14 203.703 C 170.14 202.883 169.858 202.184 169.296 201.606 C 168.734 201.029 168.054 200.741 167.256 200.741 L 162.743 200.741 L 162.743 206.61 Z M 186.796 205.311 L 186.796 207.066 L 178.808 207.066 L 178.808 214.245 L 187.458 214.245 L 187.458 216 L 176.996 216 L 176.996 198.985 L 187.515 198.985 L 187.515 200.741 L 178.808 200.741 L 178.808 205.311 L 186.796 205.311 Z M 192.524 216 L 192.524 198.985 L 198.849 198.985 C 200.156 198.985 201.265 199.447 202.177 200.37 C 203.089 201.293 203.544 202.404 203.544 203.703 C 203.544 204.737 203.246 205.662 202.65 206.478 C 202.053 207.295 201.28 207.859 200.331 208.171 L 204.741 216 L 202.679 216 L 198.393 208.376 L 194.336 208.376 L 194.336 216 L 192.524 216 Z M 194.336 206.61 L 198.906 206.61 C 199.673 206.61 200.336 206.327 200.895 205.76 C 201.453 205.194 201.732 204.509 201.732 203.703 C 201.732 202.883 201.451 202.184 200.889 201.606 C 200.327 201.029 199.647 200.741 198.849 200.741 L 194.336 200.741 L 194.336 206.61 Z M 116.95 175.646 L 118.763 175.646 L 118.763 192.66 L 116.95 192.66 L 116.95 183.726 L 107.891 183.726 L 107.891 192.66 L 106.079 192.66 L 106.079 175.646 L 107.891 175.646 L 107.891 181.971 L 116.95 181.971 L 116.95 175.646 Z M 126.095 192.66 L 124.283 192.66 L 124.283 175.646 L 126.095 175.646 L 126.095 192.66 Z M 141.49 179.144 L 139.792 179.725 L 139.666 179.35 C 139.424 178.665 139.036 178.145 138.504 177.788 C 137.972 177.431 137.391 177.252 136.76 177.252 C 136.023 177.252 135.423 177.486 134.96 177.953 C 134.496 178.42 134.265 178.988 134.265 179.657 C 134.265 180.014 134.358 180.337 134.544 180.625 C 134.73 180.914 134.979 181.161 135.29 181.366 C 135.602 181.572 135.963 181.767 136.373 181.954 C 136.783 182.14 137.212 182.326 137.661 182.512 C 138.109 182.698 138.557 182.892 139.006 183.093 C 139.454 183.295 139.883 183.534 140.293 183.811 C 140.704 184.088 141.065 184.396 141.376 184.734 C 141.688 185.072 141.936 185.486 142.122 185.977 C 142.309 186.467 142.402 187.008 142.402 187.6 C 142.402 188.611 142.132 189.524 141.593 190.341 C 141.053 191.158 140.354 191.781 139.496 192.21 C 138.637 192.639 137.718 192.854 136.738 192.854 C 136.092 192.854 135.473 192.752 134.88 192.547 C 134.287 192.341 133.735 192.037 133.222 191.635 C 132.709 191.232 132.27 190.694 131.906 190.022 C 131.541 189.349 131.298 188.58 131.176 187.715 L 131.119 187.327 L 132.909 187.11 L 132.965 187.475 C 133.057 188.09 133.224 188.635 133.467 189.11 C 133.71 189.585 134.002 189.961 134.345 190.238 C 134.687 190.516 135.059 190.725 135.461 190.865 C 135.864 191.006 136.289 191.076 136.738 191.076 C 137.779 191.076 138.685 190.75 139.455 190.096 C 140.227 189.443 140.612 188.595 140.612 187.554 C 140.612 186.993 140.462 186.499 140.163 186.073 C 139.862 185.648 139.475 185.3 139 185.03 C 138.525 184.761 137.999 184.506 137.422 184.267 C 136.844 184.027 136.265 183.779 135.684 183.52 C 135.102 183.262 134.574 182.973 134.1 182.654 C 133.625 182.335 133.237 181.919 132.937 181.407 C 132.637 180.894 132.487 180.299 132.487 179.623 C 132.487 178.475 132.886 177.497 133.683 176.688 C 134.481 175.879 135.507 175.474 136.76 175.474 C 137.756 175.474 138.679 175.763 139.53 176.34 C 140.381 176.918 140.988 177.731 141.353 178.779 L 141.49 179.144 Z M 155.524 175.646 L 155.524 177.401 L 151.193 177.401 L 151.193 192.66 L 149.415 192.66 L 149.415 177.401 L 145.073 177.401 L 145.073 175.646 L 155.524 175.646 Z M 176.22 180.797 C 176.22 180.797 176.337 181.065 176.571 181.6 C 176.804 182.136 176.921 182.992 176.921 184.17 C 176.921 185.347 176.688 186.47 176.22 187.538 C 175.753 188.605 175.122 189.523 174.328 190.29 C 173.534 191.057 172.592 191.669 171.502 192.125 C 170.412 192.58 169.27 192.808 168.077 192.808 C 166.877 192.808 165.728 192.58 164.63 192.125 C 163.532 191.669 162.587 191.057 161.792 190.29 C 160.998 189.523 160.366 188.605 159.895 187.538 C 159.424 186.47 159.189 185.347 159.189 184.17 C 159.189 182.992 159.424 181.868 159.895 180.797 C 160.366 179.726 160.998 178.802 161.792 178.027 C 162.587 177.252 163.532 176.637 164.63 176.181 C 165.728 175.725 166.877 175.497 168.077 175.497 C 169.27 175.497 170.412 175.725 171.502 176.181 C 172.592 176.637 173.534 177.252 174.328 178.027 C 175.122 178.802 175.753 179.726 176.22 180.797 Z M 161.011 184.17 C 161.011 185.105 161.196 185.997 161.565 186.848 C 161.933 187.699 162.43 188.434 163.058 189.054 C 163.684 189.673 164.436 190.165 165.314 190.529 C 166.191 190.894 167.112 191.076 168.077 191.076 C 169.354 191.076 170.533 190.767 171.616 190.147 C 172.699 189.528 173.555 188.689 174.186 187.629 C 174.817 186.569 175.132 185.416 175.132 184.17 C 175.132 182.916 174.817 181.758 174.186 180.694 C 173.555 179.63 172.699 178.791 171.616 178.176 C 170.533 177.56 169.354 177.252 168.077 177.252 C 167.112 177.252 166.193 177.434 165.32 177.799 C 164.446 178.164 163.694 178.654 163.063 179.269 C 162.432 179.885 161.933 180.62 161.565 181.475 C 161.196 182.33 161.011 183.228 161.011 184.17 Z M 181.965 192.66 L 181.965 175.646 L 188.29 175.646 C 189.597 175.646 190.706 176.107 191.618 177.03 C 192.53 177.953 192.985 179.064 192.985 180.363 C 192.985 181.397 192.687 182.322 192.091 183.138 C 191.494 183.955 190.721 184.52 189.772 184.831 L 194.182 192.66 L 192.119 192.66 L 187.834 185.036 L 183.777 185.036 L 183.777 192.66 L 181.965 192.66 Z M 183.777 183.27 L 188.347 183.27 C 189.114 183.27 189.777 182.987 190.336 182.42 C 190.894 181.854 191.174 181.169 191.174 180.363 C 191.174 179.543 190.892 178.844 190.33 178.267 C 189.768 177.689 189.088 177.401 188.29 177.401 L 183.777 177.401 L 183.777 183.27 Z M 195.965 175.646 L 198.051 175.646 L 203.156 183.509 L 208.239 175.646 L 210.325 175.646 L 204.045 185.367 L 204.045 192.66 L 202.233 192.66 L 202.233 185.367 L 195.965 175.646 Z" style="text-transform: uppercase; white-space: pre; text-decoration: none solid rgba(0, 0, 0, 0.8); fill: rgb(226, 226, 226); opacity: 0.3;"/>
    <path d="M 75.89 175.506 L 84.798 175.506 C 85.136 176.138 85.136 176.897 84.798 177.53 C 81.683 178.028 80.562 180.365 79.16 183.231 L 74.799 191.797 L 82.12 208.026 L 82.337 208.026 L 93.302 182.794 C 94.673 179.461 94.548 177.841 90.842 177.499 C 90.498 176.868 90.498 176.105 90.842 175.474 L 101.588 175.474 C 101.932 176.105 101.932 176.868 101.588 177.499 C 97.819 177.998 97.164 180.333 95.95 183.199 L 82.337 214.599 C 81.932 215.533 81.589 216 80.967 216 C 80.344 216 79.939 215.502 79.659 214.599 L 71.933 196.75 L 63.46 214.599 C 63.117 215.533 62.712 216 62.09 216 C 61.467 216 61.124 215.502 60.782 214.599 L 48.322 183.168 C 46.546 178.807 46.453 177.873 43.182 177.561 C 42.807 176.933 42.783 176.156 43.12 175.506 L 55.299 175.506 C 55.642 176.137 55.642 176.898 55.299 177.53 C 51.685 177.935 51.531 178.932 52.994 182.452 L 63.616 207.964 L 63.772 207.964 L 70.157 194.196 L 65.423 183.137 C 63.522 178.776 62.993 177.904 60.626 177.561 C 60.288 176.929 60.288 176.17 60.626 175.536 L 70.967 175.536 C 71.311 176.167 71.311 176.93 70.967 177.561 C 68.662 177.935 68.788 178.964 70.376 182.483 L 73.086 188.714 L 73.335 188.993 L 76.45 182.763 C 78.225 179.212 78.444 177.841 75.982 177.468 C 75.637 176.867 75.602 176.137 75.89 175.506 Z" style="fill: rgb(226, 226, 226); opacity: 0.3;"/>
  </g>
  <path transform="matrix(0.777996, 0, 0, 0.777996, 83.708206, 46.991768)" style="fill: rgb(255, 255, 255); text-transform: uppercase; white-space: pre; opacity: 0.3; text-decoration: none solid rgba(0, 0, 0, 0.8);"/>
  <path transform="matrix(0.777996, 0, 0, 0.777996, 83.708206, 46.991768)" style="fill: rgb(255, 255, 255); text-transform: uppercase; white-space: pre; opacity: 0.3; text-decoration: none solid rgba(0, 0, 0, 0.8);"/>
</svg>